<svg width="20" height="20" viewBox="0 0 20 20" fill="none" xmlns="http://www.w3.org/2000/svg">
<mask id="mask0_1_963" style="mask-type:alpha" maskUnits="userSpaceOnUse" x="0" y="0" width="20" height="20">
<rect width="20" height="20" fill="#D9D9D9"/>
</mask>
<g mask="url(#mask0_1_963)">
<path d="M5.70833 14.2501C6.41667 13.7084 7.20833 13.2813 8.08333 12.9688C8.95833 12.6563 9.875 12.5001 10.8333 12.5001C11.7917 12.5001 12.7083 12.6563 13.5833 12.9688C14.4583 13.2813 15.25 13.7084 15.9583 14.2501C16.4444 13.6806 16.8229 13.0348 17.0938 12.3126C17.3646 11.5904 17.5 10.8195 17.5 10.0001C17.5 8.15286 16.8507 6.57994 15.5521 5.28133C14.2535 3.98272 12.6806 3.33341 10.8333 3.33341C8.98611 3.33341 7.41319 3.98272 6.11458 5.28133C4.81597 6.57994 4.16667 8.15286 4.16667 10.0001C4.16667 10.8195 4.30208 11.5904 4.57292 12.3126C4.84375 13.0348 5.22222 13.6806 5.70833 14.2501ZM10.8333 10.8334C10.0139 10.8334 9.32292 10.5522 8.76042 9.98967C8.19792 9.42716 7.91667 8.73619 7.91667 7.91675C7.91667 7.0973 8.19792 6.40633 8.76042 5.84383C9.32292 5.28133 10.0139 5.00008 10.8333 5.00008C11.6528 5.00008 12.3438 5.28133 12.9062 5.84383C13.4688 6.40633 13.75 7.0973 13.75 7.91675C13.75 8.73619 13.4688 9.42716 12.9062 9.98967C12.3438 10.5522 11.6528 10.8334 10.8333 10.8334ZM10.8333 18.3334C9.68056 18.3334 8.59722 18.1147 7.58333 17.6772C6.56944 17.2397 5.6875 16.6459 4.9375 15.8959C4.1875 15.1459 3.59375 14.264 3.15625 13.2501C2.71875 12.2362 2.5 11.1529 2.5 10.0001C2.5 8.8473 2.71875 7.76397 3.15625 6.75008C3.59375 5.73619 4.1875 4.85425 4.9375 4.10425C5.6875 3.35425 6.56944 2.7605 7.58333 2.323C8.59722 1.8855 9.68056 1.66675 10.8333 1.66675C11.9861 1.66675 13.0694 1.8855 14.0833 2.323C15.0972 2.7605 15.9792 3.35425 16.7292 4.10425C17.4792 4.85425 18.0729 5.73619 18.5104 6.75008C18.9479 7.76397 19.1667 8.8473 19.1667 10.0001C19.1667 11.1529 18.9479 12.2362 18.5104 13.2501C18.0729 14.264 17.4792 15.1459 16.7292 15.8959C15.9792 16.6459 15.0972 17.2397 14.0833 17.6772C13.0694 18.1147 11.9861 18.3334 10.8333 18.3334ZM10.8333 16.6667C11.5694 16.6667 12.2639 16.5591 12.9167 16.3438C13.5694 16.1286 14.1667 15.8195 14.7083 15.4167C14.1667 15.014 13.5694 14.7049 12.9167 14.4897C12.2639 14.2744 11.5694 14.1667 10.8333 14.1667C10.0972 14.1667 9.40278 14.2744 8.75 14.4897C8.09722 14.7049 7.5 15.014 6.95833 15.4167C7.5 15.8195 8.09722 16.1286 8.75 16.3438C9.40278 16.5591 10.0972 16.6667 10.8333 16.6667ZM10.8333 9.16675C11.1944 9.16675 11.4931 9.04869 11.7292 8.81258C11.9653 8.57647 12.0833 8.27786 12.0833 7.91675C12.0833 7.55564 11.9653 7.25703 11.7292 7.02091C11.4931 6.7848 11.1944 6.66675 10.8333 6.66675C10.4722 6.66675 10.1736 6.7848 9.9375 7.02091C9.70139 7.25703 9.58333 7.55564 9.58333 7.91675C9.58333 8.27786 9.70139 8.57647 9.9375 8.81258C10.1736 9.04869 10.4722 9.16675 10.8333 9.16675Z" fill="#B7B7B7"/>
</g>
</svg>
