<svg width="14" height="19" viewBox="0 0 14 19" fill="none" xmlns="http://www.w3.org/2000/svg">
<path d="M1.99992 18.3333C1.54159 18.3333 1.14922 18.1701 0.822835 17.8437C0.496446 17.5173 0.333252 17.1249 0.333252 16.6666V8.33325C0.333252 7.87492 0.496446 7.48256 0.822835 7.15617C1.14922 6.82978 1.54159 6.66658 1.99992 6.66658H2.83325V4.99992C2.83325 3.84714 3.2395 2.8645 4.052 2.052C4.8645 1.2395 5.84714 0.833252 6.99992 0.833252C8.1527 0.833252 9.13533 1.2395 9.94783 2.052C10.7603 2.8645 11.1666 3.84714 11.1666 4.99992V6.66658H11.9999C12.4583 6.66658 12.8506 6.82978 13.177 7.15617C13.5034 7.48256 13.6666 7.87492 13.6666 8.33325V16.6666C13.6666 17.1249 13.5034 17.5173 13.177 17.8437C12.8506 18.1701 12.4583 18.3333 11.9999 18.3333H1.99992ZM1.99992 16.6666H11.9999V8.33325H1.99992V16.6666ZM6.99992 14.1666C7.45825 14.1666 7.85061 14.0034 8.177 13.677C8.50339 13.3506 8.66658 12.9583 8.66658 12.4999C8.66658 12.0416 8.50339 11.6492 8.177 11.3228C7.85061 10.9964 7.45825 10.8333 6.99992 10.8333C6.54158 10.8333 6.14922 10.9964 5.82284 11.3228C5.49645 11.6492 5.33325 12.0416 5.33325 12.4999C5.33325 12.9583 5.49645 13.3506 5.82284 13.677C6.14922 14.0034 6.54158 14.1666 6.99992 14.1666ZM4.49992 6.66658H9.49992V4.99992C9.49992 4.30547 9.25686 3.7152 8.77075 3.22909C8.28464 2.74297 7.69436 2.49992 6.99992 2.49992C6.30547 2.49992 5.7152 2.74297 5.22908 3.22909C4.74297 3.7152 4.49992 4.30547 4.49992 4.99992V6.66658Z" fill="#B7B7B7"/>
</svg>
